<?xml version="1.0" encoding="utf-8"?>
<!-- Generator: Adobe Illustrator 25.2.2, SVG Export Plug-In . SVG Version: 6.00 Build 0)  -->
<svg version="1.1" id="Layer_1" xmlns="http://www.w3.org/2000/svg" xmlns:xlink="http://www.w3.org/1999/xlink" x="0px" y="0px"
	 viewBox="0 0 599.5 734" style="enable-background:new 0 0 599.5 734;" xml:space="preserve">
<style type="text/css">
	.st0{fill:#004ABF;}
	.st1{fill:#22B573;stroke:#22B573;stroke-width:1.8016;stroke-miterlimit:10;}
	.st2{fill:#FFFFFF;}
	.st3{fill:#FFE600;}
	.st4{fill:none;stroke:#FFFFFF;stroke-width:3.5426;stroke-miterlimit:10;}
	.st5{fill:#FFFFFF;stroke:#004ABF;stroke-width:3.4729;stroke-miterlimit:10;}
	.st6{fill:#C1272D;}
	.st7{fill:#14153C;}
	.st8{fill:none;stroke:#FFFFFF;stroke-width:1.9119;stroke-linecap:round;stroke-miterlimit:10;}
</style>
<path class="st0" d="M0,27.9v389.2C0,562.7,198.2,686,272.3,726.9c17.1,9.5,37.9,9.5,55,0c74-41,272.3-164.2,272.3-309.8V27.9
	C599.6,27.9,319.1-34.9,0,27.9z"/>
<path class="st1" d="M310.1,521.7c-0.1-2.5-0.1-9.7-0.2-10.8s-0.7-1.2-1.3-0.9s-1.6,1.2-2.7,2.1c0-1.3,0.2-4.1,0.2-5.1
	c0-1.5-0.2-1.7-1.3-0.8c-0.5,0.5-1,0.1-1.2-0.5c-0.3-1-2.2-5.9-2.6-7s-0.9-0.9-1.5,0.2s-2,5-2.4,6.2c-0.5,1.4-0.7,1.3-1.6,0.6
	c-1.3-1-1.6-0.6-1.5,0.3c0.2,1.6,1.2,5.3,1.4,7.4c-0.8-1.2-1.7-2.2-2.7-3.2c-0.8-0.9-1.3-0.5-1.3,0.7s-0.2,6-0.2,9.2l10.1,7
	L310.1,521.7z"/>
<path class="st1" d="M232.6,572.2c-3-1-6.6-2.3-7.8-2.6s-1.3-1.2-0.2-1.6s2.7-1.1,3.9-1.6c-2.1-0.4-5.6-1-7.2-1.4s-1.3-1.1-0.4-1.6
	c0.5-0.3,0.6-0.4-0.2-1c-0.9-0.7-3.8-3.4-4.8-4.4s-1-1.5,0.2-1.5s5.8-0.1,7-0.2c1.1-0.1,1.2-0.1,0.6-1c-0.8-1.2-0.7-1.7,0.2-1.5
	l6.2,2c-0.4-1-0.7-2.1-0.9-3.1c-0.2-0.7,0.1-1.2,1.2-1s8,2.5,10.3,3.1l2.8,10.8L232.6,572.2z"/>
<path class="st1" d="M251.2,635.7c-1.3,2-4.5,6.3-5,7.3s-0.1,1.4,0.6,1.5c1.2,0,2.3-0.1,3.4-0.3c-0.8,1.1-5.4,5.6-6,6.4
	s1.9,0.3,2.7,0.2s0.5,0,0.3,1.1s-1.8,5.5-2.1,6.6s0.4,1.5,1.5,1s5.1-3.4,6-4s1-0.7,1.5,1.5c0.2,1.1,1,2.2,1.8,0.8s3.7-7.9,4.7-10.5
	c0,1.4,0.1,2.8,0.3,4.2c0.1,1.2,0.9,1.3,1.5,0.2s3.7-4.7,5.6-7.3l-2.3-10.8L251.2,635.7z"/>
<path class="st1" d="M333.6,647.6c1.5,1.9,4.9,6.7,5.7,7.5s1.3,0.6,1.6-0.1c0.4-0.9,0.7-1.9,1-2.9c0.8,1.1,2.7,3.9,3.3,4.7
	s1.1,1.1,1.3-0.1s0.4-1.2,1.3-0.7s4.3,2.9,5.2,3.5s1.8,0.4,1.6-0.9s-1-5.3-1.3-6.4s-0.3-0.9,0.8-0.8c2.3,0.2,2-0.6,0.9-1.9
	s-3.6-3.7-5.1-5.2c1.3,0.5,2.7,0.8,4,1c1.7,0.2,2.1-0.3,1-1.5c-0.8-0.9-4.2-4.7-6.1-7.3l-13.6-1.9L333.6,647.6z"/>
<path class="st1" d="M364.7,573.4c3.3-1.1,6.7-2,10.2-2.7c1-0.2,1.3-0.7,0.4-1.5c-0.8-0.7-1.7-1.4-2.6-2c1.3-0.4,4.4-1.8,5.4-2.1
	s0.2-1-0.5-1.3s-0.8-0.6-0.1-1.1c0.9-0.6,5.2-3.5,6.2-4.2s0.6-1.1-0.7-1.3s-5.3,0-6.5,0s-1.3-0.1-1-1.1c0.4-1.7,0.3-2.2-1.1-1.6
	s-4.3,2.3-6.2,3.2c0.8-1.1,1.4-2.3,1.7-3.5c0.6-1.7,0.2-1.8-1-1.3s-6,1.9-9,2.9l-6.2,12.4L364.7,573.4z"/>
<path class="st2" d="M354.5,571c-7.3,0-18.5,4.6-23.4,7.1c-3.3,1.7-6-2.8-1.9-3.5c15.3-2.9,27.8-9.9,27.8-17.4
	c0-11.8-23.9-33.6-44.3-33.6c-8.7,0-11.8,5.7-11.2,10.6c0.6,5.5,1,18.2,1.5,23c0.1,3.7-4.2,3.8-4,0.2c1.3-19.6,0.2-36-10.7-36
	c-11.2,0-46.4,17.2-46.4,36.6c0,8.3,14.8,14.4,27.2,15.8c5.4,0.6,2.9,5-0.9,3.8c-13.3-4.1-22.2-9.4-26.2-9.4c-8.3,0-12,7.2-12,18.4
	c0,20.6,7.4,47.5,26,47.5c9.3,0,18.5-16.5,20.4-20.3c1.8-3.5,5.8-0.8,3.1,2.2c-6.2,6.9-13.2,16.3-13.2,22.8
	c0,7.2,9.9,17.5,35.5,17.5c20,0,31.2-3.9,31.2-16.9c0-8-11.7-20-13.1-23.2s1.7-4.4,3.1-1.9c5.3,9.6,12.4,21.6,21.4,21.6
	c10,0,24.9-20.2,24.9-47.3C369.4,576.9,361.4,571,354.5,571z M301.5,606.5c-10.1,0-18.3-8.2-18.3-18.3s8.2-18.3,18.3-18.3
	s18.3,8.2,18.3,18.3c0,0,0,0,0,0C319.8,598.3,311.6,606.5,301.5,606.5L301.5,606.5z"/>
<path class="st0" d="M347.7,602.8c-1.1-0.8-18.9-5.9-23.4-6.8c4.1,0.7,17.6-1.9,21.1-3.8c1-0.5,0.9-2-0.5-1.6
	c-2.4,0.7-13.4,3.8-20.7,4.3c0.7-2.2,1.1-4.6,1.1-6.9c0-5.8-2.7-11.3-6.9-15.9c-0.5-0.6-1.1-1.1-1.8-1.6c6.2-4.7,15.7-7.7,18-8
	c1.9-0.3,2.3-2,0.4-1.9c-2.3,0.1-14.2,3.7-19.2,9.4c0,0,0,0-0.1,0c3.1-4.4,11.5-17.2,13-18.7c1.8-1.7,0-2.6-1.1-1.8
	s-10.6,14.9-13.4,19.6h-0.1c1.8-4.4,3.3-16.9,2.7-20.7c-0.2-1.1-1.6-1.5-1.7,0c-0.3,6.7-1,13.4-2.2,20c-4.1-1.9-8.7-2.9-13.2-2.8
	c-3.9,0-7.8,1.1-11,3.3c-3.5-7.2-3.2-19.3-2.7-21.8c0.3-1.9-1.2-2.8-1.7-1c-0.7,2.3-0.9,16,3.7,22.2c-2.2-3-13.4-17-14.5-19.1
	s-2.5-0.9-2,0.4s11.8,15.9,14.9,19.3c-3-3-15.4-8.8-19.3-9.4c-1.1-0.2-1.9,1.1-0.5,1.6c2.5,0.9,14.6,5.6,20.1,9.3
	c-1.5,1.3-3,2.7-4.3,4.2c-3.6,4-5.2,9.4-5.2,16c0,1.5,0.1,3,0.5,4.5c-8.1,0.2-19.2-5.3-21.3-6.8c-1.6-1.2-2.8-0.3-1.4,1
	c1.8,1.7,13.9,8,21.5,6.6c-3.6,0.6-21,4.2-23.6,4.4s-1.9,1.8-0.5,2s19.5-3.5,23.9-4.8c-4,1.3-14.8,9.8-17,13.1
	c-0.6,0.9,0.1,2.2,1.2,1.1c2-1.9,12.2-11.2,17.9-14.3c1.8,5.3,5.8,9.6,11,11.8c3.3,1.6,6.8,2.6,10.5,3c-1.7,8.5-8.5,18-10.3,19.7
	c-1.4,1.3-0.7,3,0.8,1.8c2-1.5,10.2-12.4,10-20.1c0,3.7,0.9,21.6,0.5,24s1.5,2.1,1.9,0.8s-0.2-19.8-0.8-24.4
	c0.7,4.1,7.3,16.2,10.1,18.9c0.8,0.8,2.2,0.3,1.3-1c-2.7-4-8.8-12.7-10.8-19.7c6.2-0.3,14.7-3.6,18.2-9.6c0.9-1.5,1.7-3,2.3-4.6
	c6.8,4.1,13.2,13.2,14.3,15.4c0.8,1.8,2.6,1.6,2-0.2c-0.8-2.3-8.7-13.5-16-15.8c3.5,1.1,20.8,5.9,22.9,7S348.8,603.6,347.7,602.8z"
	/>
<circle class="st3" cx="301.5" cy="588.1" r="10.4"/>
<polygon class="st2" points="259.7,129.9 257.2,130.1 293.4,130.1 337.9,130.1 328,128.7 "/>
<path class="st2" d="M272,152.5l-16.6,2.3c15.5-1.6,31.1-2.4,46.7-2.3c16.8-0.1,33.7,0.8,50.4,2.8l-15.7-3.2L272,152.5z"/>
<path class="st3" d="M439.8,76.1c-3.7,0.4-7.3,0.5-11,0.5c-4,0-7.7-0.2-11.3-0.3c-3-0.1-5.9-0.3-8.6-0.3c-5.4,0-10.9,0.5-14.1,3.8
	c-0.9,0.9-1.5,2-2,3.2c-3.3-2.3-7.3-3.5-11.3-3.4c-7.8,0-16.1,4.3-24.8,12.7l-2.5,2.4l3.1,1.7c2.7,1.4,4.5,4.9,6.3,8.6
	c2.4,4.8,5.2,10.4,11.2,12.8c-0.8,0.1-1.6,0.2-2.4,0.2c-13,0-20.3-15.2-20.3-15.3l-1.9-4.1l-2.9,3.5c-5.9,7.2-11.8,10.8-17.7,10.8
	c-5,0-9.6-2.8-13.1-6c1.6,0.4,3.2,0.5,4.8,0.5c15.2,0,27-15.4,27.5-16.1l-4-3.6c0.2-0.1,0.3-0.1,0.5-0.1h0.2c-0.7-0.2-2.7-2-4-3.4
	c-4.3-4.2-10.2-9.9-18.8-9.9c-1.9,0-3.8,0.3-5.7,0.8c3.2-12.9-10-25.2-17.9-30.5l-3,3.6l-3.3,3.5c-4.9,4.5-13.4,12.1-9.6,23.3
	c-1.7-0.4-3.4-0.7-5.1-0.7c-8.7,0-14.5,5.7-18.8,9.9c-1.4,1.3-3.3,3.2-4,3.4h0.2c0.2,0,0.4,0.1,0.5,0.1l-4,3.6
	c0.5,0.7,12.3,16.1,27.5,16.1c2.7,0,5.4-0.5,7.9-1.4c-4,4.8-9.8,7.6-16.1,7.7c-7.5,0-14.4-4.2-18.3-11.2l-2.9-5.2l-2.2,5.4
	c-4.5,11.1-11.4,16.8-20.4,16.8c-1.2,0-2.5-0.1-3.7-0.3c9.6-1.5,12.4-9.2,14.7-15.5c1.4-3.9,2.7-7.5,5.3-9.2l2.9-2l-2.8-2.2
	c-8.6-6.7-16.7-10.1-23.8-10.1c-4.8,0-9.4,1.6-13.1,4.8c-1.8-3.8-5.7-5.6-11.7-5.6c-4.6,0.2-9.1,0.7-13.6,1.4
	c-7.3,1.3-14.8,2-22.2,2.1h-3.7l1,3.3c1,3.6,11.4,12.6,30.8,27c-0.1,0.5-0.1,1.1-0.1,1.6c0,6.2,5.3,11.2,11.9,11.2
	c1,0,2.1-0.1,3.1-0.4l8.5,8.4c-1.2,0.9-2.3,1.9-3.1,3.2c-1,1.5-1.3,3.4-0.8,5.1c0.5,1.8,1.7,3.3,3.3,4.2c1.1,0.7,2.4,1,3.7,1
	c1,0,2-0.2,3-0.6l4.8,8.9c-1.9,1.1-3.5,2.6-4.6,4.5c-0.8,1.4-1,3.1-0.5,4.7c0.5,1.6,1.7,2.9,3.2,3.6c1,0.5,2,0.7,3.1,0.7h0.4
	c10.2,6.7,47.2,9.8,78.5,9.8c35.7,0,65.9-3.5,76.7-8.7c0.7,0.3,1.5,0.4,2.2,0.4c3.5,0.1,6.4-2.6,6.5-6.1c0-3.7-2.1-6.7-6.5-9.3
	l5.9-10c1.1,0.5,2.2,0.8,3.4,0.8c2.1,0,4.2-0.9,5.6-2.5c1.2-1.4,1.8-3.2,1.6-5c-0.2-1.8-1.1-3.5-2.6-4.6c-0.8-0.6-1.6-1.1-2.4-1.5
	L399,121h0.5c5.4,0.1,10.3-3.2,12.1-8.3h0.1l0.6-0.6c8.9-8.1,29.7-27.4,30.6-32.9l0.6-3.4L439.8,76.1z"/>
<path class="st3" d="M410.3,110.2l-1.1,0.2c-0.9,4.7-5.1,8-9.8,7.9c-0.8,0-1.5-0.1-2.3-0.3l0.1,0.1l-10.6,19.2l-24.3-3.6l24.3,6.6
	l-11.6,19.6l0,0c3.8,1.4,5.9,2.9,5.9,4.5c0,6.6-35.3,12-78.9,12s-78.9-5.4-78.9-12c0-3,7.3-5.8,19.4-7.9l-15.7,2.2l-8.4-15.5v-4.4
	l11.6-3.8l17.3-4l-31.9,3.3l-11.8-11.7l0.2-0.4c-1.3,0.7-2.8,1-4.2,1c-5,0-9.1-3.8-9.1-8.6c0-0.9,0.2-1.8,0.5-2.6
	c-7.1-5.2-30-22.3-31.2-26.6c25.4,0,45.9-10.9,45.9,5.5c0,0,10.4-19.2,36.8,1.4c-10.1,6.9-3.2,31.9-33.6,22.4c0,0.1,0,0.1,0,0.2
	c7.1,6.5,30.9,16.4,42-11.3c10.2,18.3,36.2,16.9,44.4-5.3c-0.1,0-0.2-0.1-0.3-0.1c-19.9,18.8-40.4-8.3-40.4-8.3
	c5.3,3.7,14.4-22.1,35.1-9.2c-14.8-20,13.4-28.6,9.4-33.6c0,0,24.6,16.4,12.6,33.6c20.8-12.9,29.9,13,35.1,9.2c0,0-20.7,27.5-40.8,8
	h-0.1c1.4,2.5,20.3,34.5,43.8,5.8c0,0,13.2,28.2,37.9,11.7c-21.2,5.5-18.9-16.1-28.8-21.3c23.8-23.2,36.4-5.2,36.4-5.2
	c-1.9-16.3,19.7-7.6,45-10.2C439.3,84,410.3,110.2,410.3,110.2z"/>
<path class="st0" d="M381,167.2c-1.5,0.1-2.7-1-2.9-2.5v-0.2l-0.1-0.2c-1.1-1.9-7.8-5-23-7.4c-14.5-2.4-33.3-3.7-53.1-3.7
	c-45.5,0-73.5,6.5-76.2,11.2c-0.5,0.9-1.5,1.4-2.5,1.4c-0.5,0-1-0.1-1.4-0.3c-0.7-0.3-1.2-0.9-1.4-1.6c-0.2-0.7-0.1-1.4,0.2-1.9
	c5.5-9.6,46-14,81.2-14c21.3,0,41.4,1.5,56.5,4.2c25.5,4.5,25.5,10.5,25.5,12.5C383.8,166.1,382.5,167.3,381,167.2z"/>
<path class="st0" d="M301.9,147.9c-35.3,0-75.7,4.4-81.2,14c-0.3,0.6-0.4,1.3-0.2,1.9c0.2,0.7,0.7,1.3,1.4,1.6
	c0.4,0.2,0.9,0.3,1.4,0.3c1,0,2-0.5,2.5-1.4c2.7-4.7,30.6-11.2,76.2-11.2c19.8,0,38.7,1.3,53.1,3.7c15.1,2.5,21.8,5.5,23,7.4
	l0.1,0.2v0.2c0.2,1.6,1.6,2.7,3.2,2.5c1.4-0.2,2.4-1.3,2.5-2.6c0-2,0-8-25.5-12.5C343.3,149.4,323.2,147.9,301.9,147.9L301.9,147.9z
	"/>
<path class="st0" d="M214.3,141.9c-0.3,0-0.6-0.1-0.8-0.2c-0.3-0.2-0.5-0.4-0.6-0.8c-0.1-0.3,0-0.6,0.1-0.8
	c4.2-6.6,36.5-13.2,90-13.2c43.2,0,79.5,4.7,88.3,11.5c0.3,0.2,0.4,0.5,0.5,0.8c0,0.3-0.1,0.6-0.3,0.8c-0.3,0.3-0.7,0.5-1.2,0.5
	c-0.4,0-0.7-0.1-1-0.3c-8.1-6.2-45.2-10.9-86.3-10.9c-49.2,0-83,6-87.3,11.8l-0.1,0.2C215.3,141.7,214.8,141.9,214.3,141.9z"/>
<path class="st0" d="M303,124c-30.8,0-85,3.1-92.5,14.6c-1.2,1.9-0.7,4.3,1.2,5.5c0.1,0.1,0.2,0.1,0.3,0.2c0.7,0.4,1.5,0.6,2.3,0.6
	c1.5,0,3-0.7,3.8-2c2.6-3.6,31.1-10.6,84.9-10.6c44.6,0,78,5.2,84.5,10.3c1.9,1.5,4.6,1.2,6.2-0.6c1.5-1.7,1.3-4.2-0.4-5.6
	c-0.1-0.1-0.2-0.1-0.3-0.2C382.2,127.7,340,124,303,124z"/>
<path class="st4" d="M295.4,248.7c2.6,1.5,3.9,3.9,3.9,7.2v202.7c0,2.9-1.6,5.6-4.2,7c-2.6,1.7-5.9,1.8-8.6,0.3
	c-17.1-8.5-38.8-15-65.1-19.5c-18.8-3.5-37.7-5.7-56.8-6.7c-4.5,0.1-8.9-1.7-12-5c-3.1-3.1-4.8-7.4-4.7-11.7V234.8
	c-0.1-4.9,1.9-9.6,5.6-12.8c3.6-3.3,8.5-4.9,13.4-4.5c20.8,1,41.4,3.6,61.8,7.8C256.4,230.9,278.7,238.7,295.4,248.7z"/>
<path class="st4" d="M432.7,217.6c4.9-0.5,9.7,1.1,13.4,4.5c3.7,3.2,5.7,7.9,5.6,12.8V423c0,4.4-1.7,8.6-4.7,11.7
	c-3.1,3.3-7.5,5.1-12,5c-19.1,1-38,3.2-56.8,6.7c-26.3,4.5-48.1,10.9-65.1,19.5c-2.7,1.5-6,1.4-8.6-0.3c-2.6-1.4-4.2-4.1-4.2-7V256
	c0-3.3,1.3-5.8,3.9-7.2c16.7-10,39-17.8,66.8-23.4C391.3,221.2,411.9,218.5,432.7,217.6z"/>
<path class="st5" d="M295.4,244.6c2.6,1.3,4.1,4.1,3.9,7v194.8c0,2.8-1.4,5.1-4.2,6.7c-2.6,1.6-5.9,1.7-8.6,0.3
	c-17.1-8.2-38.8-14.4-65.1-18.7c-18.8-3.3-37.7-5.5-56.8-6.4c-4.5,0.1-8.9-1.6-12-4.8c-3-3-4.7-7-4.7-11.3V231.2
	c-0.1-4.7,1.9-9.3,5.6-12.3c3.7-3.2,8.5-4.7,13.4-4.3c20.8,0.9,41.4,3.4,61.8,7.5C256.4,227.4,278.7,234.9,295.4,244.6z"/>
<path class="st5" d="M432.7,214.6c4.9-0.5,9.7,1.1,13.4,4.3c3.6,3,5.7,7.6,5.6,12.3V412c0,4.2-1.7,8.3-4.7,11.2
	c-3.1,3.2-7.5,5-12,4.8c-19,1-38,3.1-56.8,6.4c-26.3,4.3-48.1,10.5-65.1,18.7c-2.7,1.4-6,1.3-8.6-0.3c-2.8-1.6-4.2-3.8-4.2-6.7
	V251.5c-0.2-2.9,1.3-5.6,3.9-7c16.7-9.6,39-17.1,66.8-22.5C391.3,218,412,215.5,432.7,214.6z"/>
<path class="st6" d="M173.6,342.6c0.6-24.9,0.8-37.7,0.8-38.7c0-1.8-0.3-3.6-1.1-5.2c0.9-0.3,1.8-0.6,2.7-0.9c0,0.8,0,1.7-0.1,2.8
	l-0.4,10.4l0.2-0.3c-0.3,12.8-1,28.9-1.8,40.9l-0.2,2.5l0.6,0.1c-0.3,0.1-0.6,0.1-0.9,0.2C173.4,351.6,173.5,347.3,173.6,342.6z
	 M194.5,332.3c0.1-17-3.4-29.4-7.1-33.2c-0.6-0.6-1.2-1.1-2-1.4c0.4-0.3,0.8-0.7,1.2-1.1l0.3-0.2c2,1.5,9.2,8.3,8.6,30.3
	C195.4,328.7,195.1,330.5,194.5,332.3L194.5,332.3z"/>
<path class="st6" d="M187,293.4c-0.8,0.1-1.5,0.5-2.1,1.1c-2.3,1.8-4.3,3.9-6,6.3c0.1-2.4,0.1-4.1,0.1-5.2c0-0.8-0.1-1.4-0.8-1.4
	c-3.7,1-7.3,2.1-10.9,3.5c-1.3,0.5-0.9,2.3-0.3,2.3h0.1c0.7-0.2,1.5-0.4,2.2-0.4c1.7,0,2,1.4,2.1,4.5c0.1,1.7-1.1,52.5-1.1,54.2
	c0,1,0.4,1.5,0.9,1.5s0.8-0.4,1-1.2c0.6-1.1,2.6-1.5,4-1.5h0.5c1.5,0.1,2.8,1.6,5.3,1.7h0.2c7.1,0,16.3-25.1,16.5-31.8
	c0.6-20.7-5.8-30.4-10.5-33.2C187.7,293.5,187.3,293.4,187,293.4L187,293.4z M182.2,354.9c-1.1-0.1-0.8-2.1-5.3-3.1
	c1-14.5,1.7-34.2,2-46.3c1.6-2.9,3.3-5.1,5.2-5.1c3.2,0,8.2,13.6,7.6,34.6c-0.2,6-2.7,15.6-7.5,19.2
	C183.6,354.8,182.9,355,182.2,354.9L182.2,354.9z"/>
<path class="st0" d="M208,336.1c-0.2-5.5-0.4-10.2-0.6-11.1c-0.2-1.7-1-3.3-2.2-4.5c1.2-0.5,2.6-1,3.8-1.4
	C208.8,322.9,208.5,329.4,208,336.1z M206.8,302.5c-0.1-0.3-0.3-0.6-0.5-0.9l0.6-0.2C206.9,301.7,206.8,302.1,206.8,302.5
	L206.8,302.5z"/>
<path class="st7" d="M209.8,297.3c-0.1,0-0.2,0-0.2,0c-2.6,0.7-5.1,1.7-7.5,2.8c-0.9,0.8-0.3,1.3,0.2,1.3s1.6,1.3,2,2.4
	c0.3,0.8,1.5,4.4,1.6,5.3c0.1,0.6,0.7,1.1,1.4,1.1c0.5,0,1.1-0.4,1.5-1.4s1.6-10,1.7-10.6c0.2-0.4,0-0.8-0.4-0.9
	C210,297.3,209.9,297.3,209.8,297.3L209.8,297.3z M211.1,315.4c-0.8,0-10.2,3.6-11,4c-1.3,0.6-0.9,2.1-0.2,2.2
	c2.2,0.4,4,0.8,4.5,3.9c0.3,1.7,1.1,28.2,1.1,29.9c0,0.8,0.7,1.5,1.5,1.5c0,0,0,0,0,0c0.7,0,1.3-0.5,1.4-1.2c2.2-10,3.5-33.8,3.4-39
	C211.9,315.9,211.8,315.3,211.1,315.4L211.1,315.4z"/>
<path class="st0" d="M216.9,349.6l0.1-0.1l0.2,0.3L216.9,349.6z M230.8,341.3c-1.4-1.3-2.9-2.3-4.6-3.1c-3.8-2.1-7.8-4.2-8-9.8
	c1.4,2.4,4.2,4,6.6,5.4c3.8,2.2,6,3.7,6,6.3C230.9,340.5,230.9,340.9,230.8,341.3z M229.4,320.8c-1-0.6-1.9-1.3-2.7-2.1
	C227.7,319.4,228.6,320.1,229.4,320.8L229.4,320.8z"/>
<path class="st7" d="M225.2,313.7c-0.5,0.1-0.9,0.3-1.3,0.7c-7.5,5-8.6,10-8.6,13.6c0,12.5,14.2,12.4,14.2,17.2
	c0,3.6-2.6,6.9-4.7,6.9c-3.3,0-5.6-4-6.9-7.5c-0.1-0.3-0.3-0.7-0.5-0.7s-0.2,0.1-0.3,0.2c-0.5,0.6-3,4.9-3.7,5.3s-0.2,0.8,0.3,1.3
	c2.5,2.8,6.1,4.5,9.9,4.6c6.5,0,10.3-9.3,10.3-15.1c0-8.4-13.7-9-13.7-15.5c0-2.4,0.3-4.3,2.2-5.9c0-0.1,0.1-0.1,0.2-0.1
	c0.1,0,0.2,0.1,0.4,0.3c1.6,2,3.5,3.6,5.7,4.9c0.3,0.1,0.5,0.1,0.8,0.1c0.5,0,1-0.1,1.5-0.4c1.1-0.9,1.9-1.9,2.6-3.1
	c0.3-0.6-0.1-0.5-0.9-1c-2.4-1.6-4.7-3.4-6.8-5.4C225.6,313.8,225.4,313.7,225.2,313.7L225.2,313.7z"/>
<path class="st0" d="M246.9,352.1c-5.5,0-8-7.6-8-15.2c0-1.3,0.2-2.7,0.6-3.9c0.2,13.5,4.7,17.8,8.2,19
	C247.4,352.1,247.2,352.1,246.9,352.1z M251.5,324.7c-1.2-1.1-2.2-2.4-3-3.8l-0.1-0.1c-0.2-0.4-0.5-0.7-0.9-1l0.2-0.2
	c1.4,1.6,2.8,3.1,4.4,4.5C251.9,324.4,251.7,324.6,251.5,324.7L251.5,324.7z"/>
<path class="st7" d="M248,315.6c-0.4,0-0.9,0.4-1.5,1.1c-3.8,4.1-10.5,11.9-10.5,20.3c0,9.3,3.5,18.1,11,18.1c5.4,0,7-3.8,9.7-9.1
	c0.3-0.5,0.1-1.2-0.2-1.2c-0.1,0-0.3,0.1-0.4,0.3c-1.5,2.2-2.7,4.5-5.3,4.5l0,0c-4.6,0-8.2-5.2-8.2-17.5c-0.1-3.5,1-7,3-9.9
	c0-0.1,0.1-0.1,0.2-0.1c0.2,0,0.3,0.1,0.4,0.3c1,1.9,2.4,3.6,4.1,5c0.3,0.2,0.8,0.4,1.2,0.3c0.7,0,1.4-0.2,2-0.6
	c1.2-1,2.3-2.3,3.1-3.7c0.6-1.1-1.5-0.7-1.8-1c-2.2-2-4.3-4.2-6.2-6.6C248.3,315.8,248.2,315.7,248,315.6L248,315.6z"/>
<path class="st0" d="M268,352.1c-5.4-0.1-7.9-7.7-7.9-15.2c0-0.9,0.1-1.8,0.2-2.7c0,1.5,0.1,2.9,0.3,4.2l0.1,0.6l0,0v0.3l0.5,4.5
	l0.4-0.3C263.1,348.8,265.7,351.1,268,352.1z M274.3,327.9c0-0.2,0-0.4,0-0.6c0-3.2-2.5-6.1-4.2-7.6c2,1.6,5,4.7,5.4,6.9
	C275.1,327.1,274.7,327.5,274.3,327.9L274.3,327.9z"/>
<path class="st7" d="M268.7,315.8c-1,0-1.9,0.3-2.6,0.9c-3.8,4.1-9,11.9-9,20.3c0,9.3,3.5,18.1,11,18.1c5.5,0,8.7-3,11.7-8.5
	c0.3-0.5,0-1.2-0.3-1.2c-0.1,0-0.3,0.1-0.4,0.3c-1.6,2.7-4.5,4.3-7.6,4.2c-3.5,0-6.4-2.9-7.6-9.5c4.2-2.8,14.5-11.5,14.5-13.3
	c0-4.7-7-10.6-8.9-11.3C269.3,315.8,269,315.7,268.7,315.8L268.7,315.8z M263.5,338.1c-0.2-1.9-0.3-3.7-0.3-5.6
	c-0.1-3.9,0.9-7.8,2.8-11.3c0.1-0.2,0.3-0.4,0.6-0.4c0.2,0,0.4,0.1,0.5,0.2c1.9,1.5,4.2,4.1,4.2,6.3
	C271.3,330.7,266.3,335.8,263.5,338.1L263.5,338.1z"/>
<path class="st0" d="M330.1,354c-0.1-11.5-0.3-48.5-0.4-50.1c0-1.8-0.5-3.5-1.5-4.9c1-0.4,2.1-0.9,2.9-1.2v11.9l0.1-0.1
	c0,12.7-0.3,28.8-0.8,41.2l-0.1,2.6l2.8,0.5h-0.4C331.8,353.8,330.9,353.9,330.1,354z M350.4,336.5c0.1-1.6,0.2-3.1,0.2-4.6
	c0-20.1-3.7-32.8-10-34.9c0.4-0.4,0.8-0.7,1.3-1.1l0.2-0.1c2.8,1.6,10,6.6,10,32.1C351.8,330.8,351.3,333.7,350.4,336.5L350.4,336.5
	z"/>
<path class="st6" d="M341.9,292.5c-0.8,0.1-1.5,0.4-2,1c-2.2,1.8-4.2,3.9-5.8,6.3v-4c0-0.8-0.3-1.6-1.8-1.6c-0.8,0-9.4,3.7-10.1,4
	c-1.3,0.6-0.6,1.8,0.1,1.8h0.1c0.5-0.1,0.9-0.1,1.4-0.1c2,0,2.9,1.2,3,4.1c0.1,1.7,0.4,51.6,0.4,53.3c0,0.9,0.3,1.2,0.7,1.2
	c0.6-0.1,1-0.5,1.2-1c0.7-0.8,2.2-0.9,3.6-0.9h0.8c1.5,0,2.9,1.5,5.4,1.5c7.1,0,16.1-21.3,16.1-30.5c0-21.7-4.9-31-11.8-34.8
	C342.7,292.6,342.3,292.5,341.9,292.5L341.9,292.5z M339,354.2c-1.1,0-1.1-2.6-5.6-3.4c0.7-15,0.8-35.1,0.8-46.6
	c1.2-2.5,2.6-4.6,4.4-4.6c3.7,0,9,7.8,9,32.3c0,7.5-1.8,17.5-6.8,21.7C340.3,354.1,339.7,354.3,339,354.2L339,354.2z"/>
<path class="st0" d="M368.1,352.4c-3.5,0-7.7-7.1-7.7-16c0-0.5,0-1,0.1-1.5c1.1,7.9,4.3,15.4,8.4,17.4
	C368.6,352.3,368.3,352.4,368.1,352.4z M378.5,336.3c-1.1-8.4-4.6-14.9-8.2-17.4h0.4c4,0,7.9,7.9,7.9,15.9
	C378.6,335.3,378.6,335.8,378.5,336.3L378.5,336.3z"/>
<path class="st7" d="M370.7,315.9c-5.6,0-13.2,10.4-13.2,20.5c0,9.6,4.6,19,10.6,19s13.5-12.3,13.5-20.5
	C381.6,326.2,377.3,316,370.7,315.9L370.7,315.9z M371,349.8c-2.5,0-8-8.2-8-20.9c0-3.7,1.6-8.1,4.2-8.1c3.6,0,8.7,10,8.7,21.1
	C375.9,345.9,374.4,349.8,371,349.8L371,349.8z"/>
<path class="st0" d="M395.7,352.4c-4.6,0-8-8-8-15.2c0-0.7,0-1.4,0.1-2.1c0.9,9,4.2,15.5,9,17.2C396.4,352.4,396,352.4,395.7,352.4z
	 M400,325.2c-0.9-0.9-1.6-1.9-2.1-3c-0.4-0.7-0.8-1.4-1.3-2c-0.1-0.2-0.3-0.4-0.5-0.6l0.2-0.2c1.3,1.8,2.8,3.6,4.5,5.1
	c-0.2,0.2-0.5,0.5-0.7,0.7L400,325.2z"/>
<path class="st7" d="M396.7,315.6c-0.4,0-1,0.4-2,1.2c-4.9,4-10,12-10,20.4s4,18.1,11,18.1c5.5,0,7.6-4.2,10.2-8.4
	c0.4-0.6,0.1-1.5-0.4-1.5c-0.1,0-0.3,0.1-0.5,0.3c-1.4,2.1-3.1,3.9-5.7,3.9c-4.6,0-8.8-7.2-8.8-19.5c0-3.9,0.9-7,3.1-8.6
	c0.1,0,0.1,0,0.2,0c0.2,0,0.3,0.1,0.4,0.2c1.3,1.9,2.5,4.9,4.5,6c0.4,0.2,0.8,0.3,1.3,0.3c0.7,0,1.4-0.2,1.9-0.6
	c1.1-0.9,2.1-2,2.8-3.3c0.6-1.1-1.1-1.3-1.4-1.6c-2.2-1.7-5.2-5.9-5.4-6.2C397.4,315.9,397.1,315.6,396.7,315.6L396.7,315.6z"/>
<path class="st0" d="M418.5,352.4c-4.8,0-9-6.4-9-13.8c0-1.2,0.1-2.3,0.3-3.5c0.1,1.1,0.2,2.1,0.3,3l-0.1,0.1l0.3,1.1l0.4,2.9
	l0.3-0.2c1.6,5.4,4.9,9.2,8.9,10.2C419.3,352.4,418.9,352.4,418.5,352.4z M424.2,330.5c0-0.2,0-0.3,0-0.5c0.1-4.1-1.8-8-5-10.6
	c-0.2-0.2-0.4-0.3-0.6-0.4l0.2-0.2l0.3,0.1c2.1,0.7,6.4,6.4,7,10.2C425.5,329.6,424.8,330.1,424.2,330.5L424.2,330.5z"/>
<path class="st7" d="M418.7,315.9c-0.6,0-1.1,0.2-1.6,0.5c-5.7,4.8-10.7,13.1-10.7,22.2c0,8.5,5.1,16.7,12,16.7
	c5.4,0,8.3-3.8,11.7-8.6c0.4-0.5,0-1.6-0.4-1.6c-0.2,0-0.3,0.1-0.3,0.3c-1.6,2.6-4.4,4.2-7.5,4.2c-3.5,0-7.1-3.3-8.6-9.8
	c4.6-2.1,15.9-8.2,15.9-10c0-5-5.5-12.6-9.1-13.8C419.6,316,419.2,315.9,418.7,315.9L418.7,315.9z M412.9,337.8
	c-0.2-1.7-0.4-3.4-0.4-5.1c0-3.9,1-8.6,3.7-11c0.1-0.2,0.4-0.3,0.6-0.3c0.2,0,0.5,0.1,0.6,0.3c2.5,2,4,5,3.8,8.3
	C421.3,332.9,416.3,336.2,412.9,337.8L412.9,337.8z"/>
<line class="st8" x1="556.4" y1="347.4" x2="503.6" y2="295.9"/>
<polygon class="st2" points="555.4,347 557.2,353.9 562.5,359.1 562.4,353.3 568.2,353.2 562.9,348 556,346.4 "/>
<polygon class="st2" points="507.9,293.4 498.7,291 501.3,300.2 "/>
<line class="st8" x1="548.1" y1="355.8" x2="495.3" y2="304.2"/>
<polygon class="st2" points="547.1,355.4 548.9,362.3 554.2,367.5 554.1,361.7 560,361.6 554.6,356.4 547.7,354.8 "/>
<polygon class="st2" points="499.6,301.8 490.4,299.5 493,308.6 "/>
<line class="st8" x1="539.8" y1="364.1" x2="487" y2="312.6"/>
<polygon class="st2" points="538.8,363.8 540.6,370.7 545.9,375.9 545.8,370.1 551.7,370 546.3,364.8 539.4,363.2 "/>
<polygon class="st2" points="491.4,310.2 482.1,307.8 484.7,317 "/>
<line class="st8" x1="531.5" y1="372.5" x2="478.7" y2="321"/>
<polygon class="st2" points="530.5,372.2 532.3,379.1 537.6,384.3 537.5,378.5 543.4,378.4 538,373.2 531.1,371.6 "/>
<polygon class="st2" points="483.1,318.6 473.8,316.2 476.4,325.4 "/>
<line class="st8" x1="482.9" y1="347.6" x2="535.3" y2="295.8"/>
<polygon class="st2" points="483.3,346.6 476.3,348.3 471,353.5 476.9,353.5 476.8,359.4 482.1,354.1 483.9,347.2 "/>
<polygon class="st2" points="537.7,300.1 540.2,290.9 531,293.3 "/>
<line class="st8" x1="491.2" y1="355.9" x2="543.7" y2="304.1"/>
<polygon class="st2" points="491.6,355 484.7,356.6 479.4,361.9 485.2,361.9 485.2,367.7 490.5,362.5 492.2,355.6 "/>
<polygon class="st2" points="546,308.5 548.6,299.3 539.3,301.7 "/>
<line class="st8" x1="499.6" y1="364.3" x2="552" y2="312.4"/>
<polygon class="st2" points="500,363.3 493,365 487.7,370.2 493.5,370.2 493.5,376 498.8,370.8 500.5,363.9 "/>
<polygon class="st2" points="554.4,316.8 556.9,307.6 547.7,310 "/>
<line class="st8" x1="507.9" y1="372.6" x2="560.4" y2="320.8"/>
<polygon class="st2" points="508.3,371.6 501.4,373.3 496.1,378.5 501.9,378.6 501.9,384.4 507.1,379.2 508.9,372.2 "/>
<polygon class="st2" points="562.7,325.1 565.2,316 556,318.4 "/>
<line class="st8" x1="113.8" y1="347.4" x2="61" y2="295.9"/>
<polygon class="st2" points="112.8,347 114.6,353.9 119.9,359.1 119.8,353.3 125.6,353.2 120.3,348 113.4,346.4 "/>
<polygon class="st2" points="65.3,293.4 56.1,291 58.7,300.2 "/>
<line class="st8" x1="105.5" y1="355.8" x2="52.7" y2="304.2"/>
<polygon class="st2" points="104.5,355.4 106.3,362.3 111.6,367.5 111.5,361.7 117.3,361.6 112,356.4 105.1,354.8 "/>
<polygon class="st2" points="57,301.8 47.8,299.5 50.4,308.6 "/>
<line class="st8" x1="97.2" y1="364.1" x2="44.4" y2="312.6"/>
<polygon class="st2" points="96.2,363.8 98,370.7 103.3,375.9 103.2,370.1 109.1,370 103.7,364.8 96.8,363.2 "/>
<polygon class="st2" points="48.7,310.2 39.5,307.8 42.1,317 "/>
<line class="st8" x1="88.9" y1="372.5" x2="36.1" y2="321"/>
<polygon class="st2" points="87.9,372.2 89.7,379.1 95,384.3 94.9,378.5 100.8,378.4 95.4,373.2 88.5,371.6 "/>
<polygon class="st2" points="40.5,318.6 31.2,316.2 33.8,325.4 "/>
<line class="st8" x1="40.3" y1="347.6" x2="92.7" y2="295.8"/>
<polygon class="st2" points="40.7,346.6 33.7,348.3 28.4,353.5 34.3,353.5 34.2,359.4 39.5,354.1 41.3,347.2 "/>
<polygon class="st2" points="95.1,300.1 97.6,290.9 88.4,293.3 "/>
<line class="st8" x1="48.6" y1="355.9" x2="101.1" y2="304.1"/>
<polygon class="st2" points="49,355 42.1,356.6 36.8,361.9 42.6,361.9 42.6,367.7 47.8,362.5 49.6,355.6 "/>
<polygon class="st2" points="103.4,308.5 106,299.3 96.7,301.7 "/>
<line class="st8" x1="57" y1="364.3" x2="109.4" y2="312.4"/>
<polygon class="st2" points="57.3,363.3 50.4,365 45.1,370.2 50.9,370.2 50.9,376 56.2,370.8 58,363.9 "/>
<polygon class="st2" points="111.8,316.8 114.3,307.6 105.1,310 "/>
<line class="st8" x1="65.3" y1="372.6" x2="117.8" y2="320.8"/>
<polygon class="st2" points="65.7,371.6 58.8,373.3 53.5,378.5 59.3,378.6 59.2,384.4 64.5,379.2 66.3,372.2 "/>
<polygon class="st2" points="120.1,325.1 122.7,316 113.4,318.4 "/>
</svg>
